<svg width="804" height="517" viewBox="0 0 804 517" fill="none" xmlns="http://www.w3.org/2000/svg">
<g opacity="0.8">
<path d="M651.555 514.929C651.555 514.929 731.124 513.032 765.124 464.754C826.718 377.291 798.96 300.588 689.302 306.298C566.627 312.685 581.757 41.5564 369.342 172.095C323.219 200.442 220.563 140.912 179.551 264.936C169.8 294.429 96.5579 296.482 49.226 320.134C-25.0211 357.234 -4.05362 515.546 66.0896 516.17C136.23 516.793 651.555 514.929 651.555 514.929Z" fill="#77BCFF"/>
<path d="M278.619 108.654H274.81V73.8142L273.614 73.7077V59.8587L273.958 58.7117L107.417 8.48682L37.8968 55.4461L38.5667 56.4395C36.3128 56.4395 34.4658 58.2854 34.4658 60.545V84.4854C34.4658 86.7418 36.3096 88.5908 38.5667 88.5908H73.4144C75.6683 88.5908 77.5153 86.7449 77.5153 84.4854V74.908H100.746V515.43H128.078V74.908H240.503L271.839 108.654H265.409C263.155 108.654 261.308 110.5 261.308 112.76V116.865C261.308 119.122 263.152 120.971 265.409 120.971H278.619C280.873 120.971 282.72 119.125 282.72 116.865V112.76C282.72 110.5 280.873 108.654 278.619 108.654ZM107.815 11.1068L269.469 59.8587H77.4495C77.1208 57.925 75.4336 56.4395 73.4113 56.4395H40.7016L107.815 11.1068ZM260.04 74.908L272.418 76.0049V105.762L243.762 74.908H260.04V74.908Z" fill="#D2E4FF"/>
<path d="M216.062 515.358H95.8193C101.611 511.08 122.393 496.159 141.217 488.102C149.018 484.764 156.481 482.605 162.4 482.871C181.176 483.714 207.494 507.225 216.062 515.358Z" fill="#E27F2B"/>
<path d="M177.839 515.358H57.5967C65.7858 509.306 103.971 481.965 124.177 482.871C129.449 483.109 135.315 485.134 141.216 488.102C156.333 495.705 171.675 509.507 177.839 515.358Z" fill="#E69D43"/>
<path d="M759.573 133.82L760.03 133.14L712.341 100.929L598.103 135.381L598.341 136.167V145.666L597.521 145.739V169.638H594.907C593.36 169.638 592.096 170.904 592.096 172.452V175.267C592.096 176.815 593.36 178.081 594.907 178.081H603.969C605.516 178.081 606.78 176.815 606.78 175.267V172.452C606.78 170.904 605.516 169.638 603.969 169.638H599.559L621.055 146.491H698.173V448.667H716.921V146.491H732.858V153.059C732.858 154.608 734.123 155.874 735.669 155.874H759.573C761.119 155.874 762.384 154.608 762.384 153.059V136.638C762.384 135.086 761.119 133.82 759.573 133.82ZM712.072 102.725L758.105 133.82H735.669C734.282 133.82 733.124 134.839 732.899 136.167H601.183L712.072 102.725ZM599.161 167.654V147.243L607.651 146.491H618.817L599.161 167.654Z" fill="#EBF2F9"/>
<path d="M533.429 24.4792H375.706V515.834H533.429V24.4792Z" fill="#D2E4FF"/>
<path opacity="0.5" d="M489.866 92.2793H375.706V164.263H489.866V92.2793Z" fill="#AED3FF"/>
<path opacity="0.5" d="M489.866 224.091H375.706V296.075H489.866V224.091Z" fill="#AED3FF"/>
<path opacity="0.5" d="M489.866 354.203H375.706V426.187H489.866V354.203Z" fill="#AED3FF"/>
<path d="M730.047 425.726H708.764V359.161H533.429V24.4792H489.866V516.113H533.429V515.837H708.764H730.047V425.726Z" fill="#AED3FF"/>
<path d="M803.211 517H0.788864C0.353737 517 0 516.646 0 516.21C0 515.775 0.353737 515.42 0.788864 515.42H803.211C803.646 515.42 804 515.775 804 516.21C804 516.646 803.646 517 803.211 517Z" fill="#283250"/>
<path d="M566.031 515.433C566.031 515.433 566.344 508.632 568.166 504.984C569.988 501.336 584.563 503.844 584.563 503.844C584.563 503.844 587.922 509.93 587.468 515.402L566.031 515.433Z" fill="#233862"/>
<path d="M526.914 515.433C526.914 515.433 527.227 508.632 529.049 504.984C530.871 501.336 545.446 503.844 545.446 503.844C545.446 503.844 548.805 509.93 548.351 515.402L526.914 515.433Z" fill="#233862"/>
<path d="M575.476 226.792C573.654 228.111 557.176 236.724 557.176 236.724L539.796 224.319C539.796 224.319 545.074 223.548 545.215 223.508C546.783 223.069 546.711 218.86 546.908 214.375C546.939 213.683 546.977 212.987 547.027 212.294L564.044 211.674L564.057 211.887C564.069 212.103 564.088 212.329 564.104 212.564L564.138 213.05C564.147 213.216 564.163 213.385 564.176 213.56C564.482 217.5 565.14 223.066 566.395 223.715C567.112 224.087 571.958 224.028 575.476 226.792Z" fill="#D9935C"/>
<path d="M564.179 213.564C562.773 216.375 559.649 221.27 555.013 221.107C550.586 220.95 548.063 216.92 546.908 214.375C546.94 213.683 546.977 212.987 547.027 212.294L564.044 211.674L564.057 211.887L564.104 212.564L564.138 213.05C564.151 213.222 564.166 213.388 564.179 213.564Z" fill="#CB7D45"/>
<path d="M545.005 174.317C545.005 174.317 553.213 166.134 562.895 174.483C562.895 174.48 557.138 173.286 545.005 174.317Z" fill="#2B478B"/>
<path d="M541.959 204.416C541.959 204.416 539.361 199.028 537.755 192.754C536.609 188.276 537.658 171.274 554.731 172.427C554.731 172.427 559.674 172.543 564.517 175.314C568.37 177.517 574.064 182.475 569.247 197.602L568.082 202.679L541.959 204.416Z" fill="#B64C41"/>
<path d="M565.841 211.555C561.433 215.773 555.958 221.395 544.156 211C541.846 208.966 542.003 205.839 541.868 201.348C541.705 196.032 540.428 192.776 541.02 189.711C541.724 186.044 544.854 184.39 551.356 183.822C563.289 182.785 569.322 185.477 568.52 191.407C566.736 204.638 570.324 207.264 565.841 211.555Z" fill="#D9935C"/>
<path d="M556.117 183.606C556.117 183.606 563.192 183.456 564.807 185.825C566.423 188.194 566.648 190.843 567.462 192.178C568.276 193.513 568.141 195.011 568.141 195.011L569.71 184.44L560.137 182.534L556.117 183.606Z" fill="#B64C41"/>
<path d="M597.377 241.913C597.377 241.913 594.356 250.826 582.11 252.459C581.778 252.503 581.436 252.541 581.092 252.575H531.215C531.215 252.575 531.124 252.547 530.949 252.494C529.011 251.879 517.097 247.79 515.842 240.146C515.842 240.146 522.106 227.265 526.889 225.667C528.282 225.2 530.214 224.849 532.242 224.586C534.314 224.319 536.499 224.141 538.331 224.025C540.851 223.868 542.704 223.827 542.704 223.827C542.704 223.827 546.589 231.712 556.043 231.593C565.496 231.481 567.685 223.943 567.685 223.943C567.685 223.943 570.339 224.019 573.864 224.401C575.808 224.611 578.015 224.912 580.191 225.344C583.878 226.081 587.469 227.187 589.519 228.857C594.985 233.304 597.377 241.913 597.377 241.913Z" fill="#9ED9F0"/>
<path d="M585.509 310.848C584.98 307.896 584.188 303.402 583.568 299.45C583.571 299.396 585.418 277.136 586.1 273.378C586.783 269.618 582.14 249.147 582.14 249.147C581.06 246.013 579.229 245.057 577.827 245.057L580.187 225.347C578.011 224.912 575.805 224.611 573.861 224.404L572.73 245.06L572.715 245.358C570.129 245.502 566.905 245.674 563.9 245.809C560.897 245.947 558.115 246.044 556.405 246.044C552.924 246.044 544.935 245.643 539.633 245.354L539.611 245.06L538.33 224.028C536.499 224.144 534.317 224.322 532.242 224.589L534.496 245.06V245.063C533.009 245.063 531.303 247.705 531.065 249.172L530.836 255.577C529.712 258.802 527.386 265.963 527.001 270.99C526.491 277.637 529.265 300.757 529.283 300.916C529.183 303.671 528.986 307.194 528.61 310.603C526.526 316.257 517.638 342.548 518.543 377.899C519.388 410.9 519.886 467.289 523.771 494.667C524.403 499.111 525.12 502.791 525.946 505.483C526.363 506.84 527.534 507.824 528.939 508.018C533.394 508.635 543.433 509.776 547.753 508.203C549.822 507.448 551.306 495.937 552.355 481.1C553.359 466.875 553.964 449.592 554.299 435.793C554.302 435.793 554.302 435.79 554.302 435.786C554.571 424.786 554.674 416.008 554.674 412.758C554.674 405.406 556.408 383.832 556.984 371.142C557 370.782 557.523 370.779 557.548 371.136C557.548 371.139 557.548 371.139 557.548 371.139C558.418 386.204 561.461 409.051 561.508 414.128C561.621 426.441 560.907 505.548 566.282 508.203C570.392 510.234 580.078 508.698 584.704 508.071C586.379 507.846 587.753 506.652 588.226 505.025C594.008 485.121 594.518 415.958 595.495 377.899C596.378 343.04 587.75 316.99 585.509 310.848Z" fill="#2B478B"/>
<path d="M540.209 325.083C538.5 326.452 532.921 325.879 530.758 324.058C528.592 322.231 524.266 322.801 523.242 322.118C523.17 322.071 503.029 298.174 500.844 288.118C498.64 277.97 512.583 250.043 516.527 242.431C519.448 248.608 529.177 251.942 530.915 252.494C531.09 252.547 531.181 252.575 531.181 252.575H531.719C528.435 261.46 518.622 277.456 514.84 283.482C513.901 284.98 513.782 286.855 514.527 288.462C519.385 298.892 524.137 307.686 526.219 313.782C526.632 314.458 527.521 315.668 528.592 315.505C530.076 315.276 534.859 314.248 537.251 317.784C539.642 321.322 541.918 323.716 540.209 325.083Z" fill="#D9935C"/>
<path d="M570.872 174.555C570.872 174.555 569.56 172.772 567.209 170.769C566.837 170.447 566.436 170.124 566.01 169.801C561.687 166.507 554.766 163.292 546.42 166.777C544.16 167.72 542.278 169.002 540.72 170.487C540.35 170.838 539.999 171.196 539.671 171.569C532.436 179.604 533.05 192.206 533.05 192.206L574.794 191.758C574.926 180.093 570.872 174.555 570.872 174.555Z" fill="#FFA412"/>
<path d="M563.065 191.886C562.949 190.128 562.147 175.709 567.209 170.779C566.837 170.453 566.924 170.512 566.499 170.187C561.102 175.856 560.758 190.056 560.776 191.911L547.431 192.055C547.037 181.82 541.393 171.628 540.717 170.491C540.347 170.842 540.278 170.91 539.946 171.28C540.926 173.004 544.611 182.873 544.961 192.08L533.044 192.209C533.044 192.209 544.163 195.086 552.537 194.982C560.911 194.879 574.788 191.761 574.788 191.761L563.065 191.886Z" fill="#E27F2B"/>
<path d="M541.789 247.216C537.52 255.424 525.392 256.963 525.392 256.963C529.321 247.385 521.404 244.367 516.508 234.561C511.612 224.755 520.265 218.258 520.265 218.258C514.912 219.283 513.885 226.466 513.885 226.466C513.431 221.677 517.416 213.585 530.057 211.987C539.31 210.818 541.545 207.694 542.077 206.105C542.287 208.167 542.785 209.781 544.169 211C545.145 211.862 546.081 212.611 546.973 213.263C546.951 213.636 546.936 214.009 546.92 214.378C546.867 215.641 546.833 216.882 546.773 218.02C545.12 219.994 545.167 222.094 545.449 223.414C545.624 224.235 545.887 224.755 545.887 224.755C547.211 226.598 547.884 228.412 548.082 230.224C548.67 235.649 544.989 241.061 541.789 247.216Z" fill="#B64C41"/>
<path d="M585.415 310.312L583.571 299.453C574.59 302.787 566.097 304.242 558.6 304.643C557.717 303.013 556.108 301.819 554.155 301.534L547.531 300.575C544.917 300.196 542.453 301.559 541.304 303.784C534.943 302.797 530.648 301.352 529.287 300.857L529.284 300.916L528.623 310.453V310.478C532.448 311.497 536.12 312.29 539.626 312.891L539.432 314.217C538.947 317.514 541.217 320.585 544.51 321.077L551.851 322.18C555.354 322.707 558.553 320.118 558.772 316.58L558.9 314.533C572.893 314.461 582.194 311.515 585.415 310.312Z" fill="#233862"/>
<path d="M612.255 288.117C610.073 298.171 589.929 322.071 589.857 322.118C589.682 322.234 589.409 322.315 589.068 322.378C589.056 322.381 589.043 322.381 589.031 322.384C587.365 322.672 584.122 322.55 582.341 324.058C580.178 325.882 574.596 326.452 572.887 325.083C571.178 323.713 573.457 321.319 575.849 317.783C578.24 314.252 583.023 315.276 584.501 315.505C585.384 315.637 586.144 314.844 586.611 314.183C586.62 314.17 586.63 314.158 586.639 314.145C586.727 314.013 586.811 313.891 586.874 313.781C588.909 307.821 593.498 299.284 598.24 289.155C599.189 287.13 599.051 284.758 597.865 282.859C594.697 277.794 588.267 267.27 584.132 258.824C583.649 256.383 583.167 254.086 582.795 252.349C591.882 250.886 595.642 245.351 596.86 242.991C601.161 251.337 614.409 278.205 612.255 288.117Z" fill="#D9935C"/>
<path d="M748.604 331.463C745.558 332.169 731.788 332.335 722.121 330.16C720.105 329.708 718.264 329.154 716.74 328.48C714.918 327.678 713.547 326.706 712.846 325.534C711.753 323.71 709.753 317.473 707.402 309.291C700.928 286.754 691.815 249.517 691.815 249.517C691.815 249.517 710.11 253.255 713.982 256.446C717.857 259.636 721.273 310.256 724.913 311.625C725.449 311.826 726.375 312.252 727.562 312.835C727.621 312.863 727.677 312.895 727.737 312.92C728.444 313.268 729.24 313.672 730.1 314.117C737.654 318.003 750.154 325.004 751.45 326.559C753.159 328.615 753.046 330.439 748.604 331.463Z" fill="#739AF0"/>
<path d="M713.503 278.339C713.503 277.478 713.418 276.616 713.262 275.751C710.908 262.792 692.191 249.523 691.821 249.523L691.818 249.792C691.818 251.773 688.7 255.43 683.895 255.744C678.198 256.117 671.164 252.864 671.164 249.576C671.129 249.576 667.961 250.005 666.888 250.124C662.32 250.645 653.205 253.114 649.301 256.07C645.588 258.878 650.835 276.584 654.084 289.123C655.462 294.429 656.476 298.807 656.307 300.744C656.226 301.691 655.374 314.562 654.616 326.204C653.987 335.81 653.421 344.576 653.405 345.124C653.364 346.215 658.783 350.035 667.88 352.921C670.078 353.62 672.491 354.263 675.096 354.796C679.766 355.758 685.047 356.375 690.795 356.356C692.673 356.35 694.454 356.253 696.135 356.087C709.126 354.808 713.578 339.981 713.503 278.339Z" fill="#739AF0"/>
<path d="M671.167 249.419C671.058 244.386 671.139 238.375 671.818 233.298L691.884 236.583C691.884 236.583 691.906 242.716 691.819 249.52C691.831 249.52 692.363 255.828 684.6 256.753C676.836 257.677 670.958 254.293 671.167 249.419Z" fill="#D9935C"/>
<path d="M687.955 515.436C685.432 513.882 686.916 502.361 686.916 502.361C686.916 502.361 698.733 492.969 700.327 500.199C701.92 507.429 711.48 510.71 716.927 511.616C720.687 512.239 722.074 514.189 722.43 515.423L687.955 515.436Z" fill="#233862"/>
<path d="M669.57 317.329C669.57 336.593 660.245 331.404 654.613 326.201C655.371 314.559 655.903 273.322 655.903 273.322C655.903 273.322 669.57 289.738 669.57 317.329Z" fill="#4A75CB"/>
<path d="M730.103 314.12C729.73 316.821 725.467 324.688 722.123 330.16C720.108 329.708 718.267 329.154 716.742 328.48C714.92 327.677 713.549 326.706 712.848 325.534C711.756 323.71 709.755 317.473 707.404 309.29C709.145 299.221 710.798 289.28 710.798 289.28L711.311 282.611C711.311 283.125 719.112 312.424 722.643 313.108C724.772 313.521 726.281 313.02 727.567 312.835C727.627 312.863 727.683 312.895 727.743 312.92C728.447 313.274 729.242 313.678 730.103 314.12Z" fill="#4A75CB"/>
<path d="M651.739 515.436C649.216 513.882 650.7 502.361 650.7 502.361C650.7 502.361 662.517 492.969 664.111 500.199C665.704 507.429 675.265 510.71 680.711 511.616C684.471 512.239 685.836 514.189 686.193 515.423L651.739 515.436Z" fill="#233862"/>
<path d="M669.254 227.507C669.254 227.507 655.859 206.362 681.581 204.961C681.581 204.961 691.229 206.099 693.414 203.911C693.414 203.911 700.899 215.297 693.909 227.507C686.919 239.714 669.254 227.507 669.254 227.507Z" fill="#233862"/>
<path d="M691.289 238.541C689.339 240.077 683.623 241.603 681.97 241.782C681.97 241.782 673.493 239.889 671.95 238.958C669.564 237.51 669.718 234.577 669.596 230.503C669.448 225.68 668.963 221.891 669.502 219.108C670.14 215.779 672.247 213.886 678.148 213.373C688.976 212.432 693.49 215.146 693.678 218.782C693.728 219.756 693.772 220.687 693.803 221.571C694.235 232.906 693.343 236.924 691.289 238.541Z" fill="#D9935C"/>
<path d="M693.9 225.285C693.797 231.85 692.025 235.74 690.745 236.228C689.27 236.793 687.533 237.263 685.72 237.573C685.11 237.645 684.525 237.623 684.534 237.278C684.553 236.244 685.936 234.965 684.91 234.047C683.833 233.085 678.048 232.762 677.581 234.859C677.353 235.884 679.219 237.689 677.941 237.73C677.553 237.664 677.171 237.589 676.808 237.495C674.701 236.946 673.049 235.946 672.354 235.526C669.968 234.079 670.125 231.857 669.596 227.814C669.255 225.197 669.255 226.617 669.596 230.496C669.953 234.558 669.255 237.166 671.95 238.952C673.449 239.945 682.095 243.835 682.095 243.835C681.97 241.776 689.339 240.071 691.289 238.535C693.102 237.119 694.01 233.822 693.9 225.285Z" fill="#233862"/>
<path d="M653.405 345.121C653.364 346.212 658.783 350.032 667.88 352.918C668.612 353.153 669.373 353.376 670.152 353.595C670.162 353.598 670.171 353.608 670.171 353.617C671.02 363.586 673.317 377.667 675.39 391.259C675.39 391.259 675.39 391.259 675.39 391.262C675.925 394.785 676.445 398.273 676.923 401.648C678.188 410.583 679.134 418.722 679.237 424.58V424.642C679.281 427.331 677.017 434.038 676.845 435.586C676.739 436.532 676.654 437.535 676.592 438.585C676.344 442.782 676.445 447.743 676.783 453.036C678.27 476.143 684.368 505.708 686.543 506.965C690.869 509.469 698.739 506.962 702.74 506.376C704.396 506.128 705.723 504.718 705.636 503.045C703.682 464.697 709.295 411.292 713.49 378.46C713.599 377.605 713.709 376.768 713.815 375.944C714.316 372.073 714.648 368.457 714.858 365.197C715.049 362.339 715.143 359.741 715.183 357.491C715.193 356.789 715.199 356.118 715.205 355.485C715.215 353.429 713.584 339.975 713.509 278.333C713.509 276.91 712.341 275.745 710.92 275.745H673.267C669.63 275.745 666.7 278.725 666.746 282.367C666.806 287.068 666.637 293.633 665.616 299.901C664.227 308.46 661.25 316.455 655.108 318.382C655.101 318.385 655.095 318.388 655.092 318.395C655.064 318.457 654.898 318.83 654.626 319.454C654.626 319.457 654.622 319.46 654.622 319.463C654.563 321.012 654.5 322.585 654.428 324.193C654.416 324.515 654.4 324.838 654.385 325.164C654.378 325.355 654.369 325.543 654.356 325.734C654.344 326.06 654.325 326.386 654.309 326.715C654.284 327.254 654.259 327.8 654.228 328.351C654.203 328.784 654.181 329.213 654.156 329.649C654.112 330.482 654.059 331.329 654.006 332.181C653.993 332.454 653.974 332.726 653.956 333.002C653.884 334.102 653.809 335.221 653.724 336.346C653.699 336.691 653.674 337.036 653.646 337.387C653.636 337.556 653.621 337.722 653.608 337.888C653.574 338.33 653.539 338.772 653.502 339.214C653.464 339.684 653.424 340.154 653.383 340.63C653.226 342.363 653.449 343.908 653.405 345.121Z" fill="#2B478B"/>
<path d="M676.783 453.039C678.27 476.146 684.368 505.711 686.543 506.968C690.869 509.472 698.739 506.965 702.74 506.379C704.396 506.131 705.723 504.721 705.635 503.048C703.682 464.7 709.295 411.295 713.49 378.463C713.599 377.608 713.709 376.771 713.815 375.947C714.316 372.076 714.648 368.46 714.858 365.2C712.864 352.182 701.604 351.486 691.392 378.413C692.654 387.348 676.444 447.746 676.783 453.039Z" fill="#233862"/>
<path d="M652.982 423.495C652.672 426.165 649.551 432.518 649.175 434.032C644.013 454.816 646.865 504.098 649.423 506.069C653.383 509.118 661.516 507.67 665.557 507.614C667.232 507.589 668.731 506.36 668.866 504.693C672.04 465.428 685.194 411.495 693.652 379.767C697.913 363.787 698.514 352.035 698.514 352.035C698.514 352.035 658.98 327.787 654.704 341.031C650.922 352.759 655.364 402.987 652.982 423.495Z" fill="#2B478B"/>
<path d="M693.246 199.05C692.974 198.743 692.686 198.445 692.379 198.157C691.089 196.932 689.537 195.873 687.668 195.092C680.775 192.212 675.058 194.87 671.487 197.59C671.136 197.856 670.804 198.126 670.494 198.389C668.553 200.041 667.467 201.517 667.467 201.517C667.467 201.517 664.118 206.089 664.23 215.726L698.712 216.096C698.718 216.096 699.222 205.688 693.246 199.05Z" fill="#FFA412"/>
<path d="M673.909 215.826L675.803 215.848C675.844 215.3 675.75 202.77 671.082 197.906C670.732 198.173 670.804 198.126 670.497 198.392C674.93 202.673 673.919 215.698 673.909 215.826Z" fill="#E27F2B"/>
<path d="M688.895 215.993C689.289 208.321 692.222 200.26 693.014 198.828C692.742 198.511 692.683 198.455 692.379 198.157C691.831 199.104 687.333 207.453 686.857 215.971L664.233 215.729C664.233 215.729 675.697 218.302 682.615 218.39C689.533 218.475 698.718 216.099 698.718 216.099L688.895 215.993Z" fill="#E27F2B"/>
<path d="M665.532 250.306C665.532 250.306 677.183 263.895 677.866 275.751L671.931 276.067C671.931 276.067 670.434 262.861 661.666 251.121C661.666 251.121 663.037 250.789 663.494 250.698C664.108 250.573 665.532 250.306 665.532 250.306Z" fill="#2B478B"/>
<path d="M694.582 250.118C702.928 262.764 703.823 276.005 703.823 276.005L709.815 275.901C709.323 266.581 703.472 256.33 700.245 251.472C700.245 251.475 696.097 250.425 694.582 250.118Z" fill="#2B478B"/>
<path d="M681.57 380.522H676.758C674.523 379.507 662.474 374.283 650.895 374.217C642.54 374.17 633.02 380.419 632.447 380.488C630.995 380.66 637.287 380.717 637.287 380.717C637.287 380.717 646.716 376.539 650.951 376.442C654.989 376.348 663.955 379.288 667.536 380.522H640.571C638.317 380.522 636.47 382.368 636.47 384.628V415.41C636.47 417.666 638.314 419.515 640.571 419.515H681.567C683.82 419.515 685.667 417.669 685.667 415.41V384.628C685.671 382.368 683.827 380.522 681.57 380.522Z" fill="#FFA412"/>
<path d="M668.246 380.522H627.25C624.996 380.522 623.149 382.368 623.149 384.628V415.41C623.149 417.666 624.993 419.515 627.25 419.515H668.246C670.5 419.515 672.347 417.669 672.347 415.41V384.628C672.347 382.368 670.503 380.522 668.246 380.522Z" fill="#E27F2B"/>
<path d="M656.207 323.249C656.501 337.164 654.77 364.868 654.77 364.868H646.571C642.699 345.372 641.334 332.83 641.334 325.991C641.334 324.644 641.34 323.387 641.353 322.231C641.403 316.389 641.562 312.995 641.562 312.995C640.025 277.6 647.088 258.671 649.304 256.066C651.523 253.459 661.672 251.118 661.672 251.118C661.672 251.118 665.025 260.896 666.39 268.762C667.758 276.628 655.643 309.682 656.141 320.977C656.166 321.682 656.191 322.444 656.207 323.249Z" fill="#739AF0"/>
<path d="M762.625 332.72H755.995C755.337 332.72 754.799 333.262 754.799 333.923V514.69C754.799 515.351 755.337 515.891 755.995 515.891H762.625C763.285 515.891 763.821 515.351 763.821 514.69V333.923C763.821 333.262 763.285 332.72 762.625 332.72Z" fill="#F1A34F"/>
<path d="M762.625 332.72H755.995C755.337 332.72 754.799 333.262 754.799 333.923V339.524H763.821V333.923C763.821 333.262 763.285 332.72 762.625 332.72Z" fill="#2B478B"/>
<path d="M754.799 514.69C754.799 515.352 755.337 515.891 755.995 515.891H762.625C763.285 515.891 763.821 515.352 763.821 514.69V509.858H754.799V514.69Z" fill="#2B478B"/>
<path d="M759.366 344.566C758.99 344.566 758.684 344.874 758.684 345.25V504.364C758.684 504.74 758.99 505.047 759.366 505.047C759.742 505.047 760.048 504.74 760.048 504.364V345.25C760.048 344.874 759.742 344.566 759.366 344.566Z" fill="#E27F2B"/>
<path d="M654.77 364.871C654.77 364.871 656.501 337.164 656.207 323.252C649.652 321.137 644.361 321.601 641.35 322.234C641.34 323.393 641.331 324.65 641.331 325.995C641.331 332.836 642.699 345.378 646.568 364.871C644.859 372.054 644.975 379.808 647.936 381.174C650.898 382.541 660.689 377.414 660.577 375.132C660.464 372.85 654.77 364.871 654.77 364.871Z" fill="#D9935C"/>
<path d="M766.954 332.833C766.156 329.9 765.561 328.273 763.545 326.847C760.612 324.776 757.134 325.337 754.539 325.794C752.557 326.142 750.479 325.478 749.608 325.142C745.016 322.077 733.484 315.756 727.739 312.923C723.82 315.198 719.009 319.698 716.742 328.48C725.579 332.382 744.922 332.313 748.607 331.463C748.607 331.463 752.016 333.946 754.611 334.171C755.594 334.259 756.83 333.971 757.989 333.582C759.81 332.971 761.767 333.579 763.079 335.202C764.34 336.763 765.984 337.619 766.669 337.619C767.721 337.622 767.455 334.682 766.954 332.833Z" fill="#D9935C"/>
<path d="M70.8975 368.441H29.9016C27.6477 368.441 25.8008 370.287 25.8008 372.546V403.328C25.8008 405.585 27.6446 407.434 29.9016 407.434H70.8975C73.1514 407.434 74.9984 405.588 74.9984 403.328V372.546C74.9984 370.287 73.1514 368.441 70.8975 368.441Z" fill="#FFA412"/>
<path d="M84.2208 368.441H43.2249C40.971 368.441 39.124 370.287 39.124 372.546V403.328C39.124 405.585 40.9678 407.434 43.2249 407.434H84.2208C86.4747 407.434 88.3216 405.588 88.3216 403.328V372.546C88.3216 370.287 86.4747 368.441 84.2208 368.441Z" fill="#E27F2B"/>
<path d="M34.3438 368.61C34.3438 368.61 44.0793 361.427 45.5318 361.599C46.9844 361.772 49.2883 362.283 49.2883 362.283L40.5764 368.867L34.3438 368.61Z" fill="#FFA412"/>
<path d="M111.192 255.154C107.289 252.199 98.1728 249.73 93.6055 249.209C92.5318 249.09 89.3263 249.075 89.2918 249.075C89.2918 252.362 82.2985 255.201 76.6011 254.829C71.7991 254.515 68.678 250.858 68.678 248.877L68.6749 248.871C68.3055 248.871 49.5888 261.877 47.2347 274.836C47.0782 275.701 46.9937 276.563 46.9937 277.424C46.9185 339.066 43.1871 348.521 44.3672 348.5C44.3672 348.5 51.37 353.893 64.3675 355.169C66.0485 355.335 67.8297 355.432 69.7079 355.438C75.4554 355.46 80.7364 354.84 85.407 353.877C88.0115 353.345 90.425 352.702 92.6226 352.003C101.72 349.117 107.138 345.297 107.098 344.206C107.054 342.993 107.276 341.448 107.126 339.718C106.559 333.193 106.249 327.489 106.008 321.748C115.882 322.616 121.576 321.638 121.576 321.638C129.655 304.226 116.473 259.15 111.192 255.154ZM108.888 305.329C108.287 305.489 107.633 305.643 106.938 305.79C106.456 305.896 105.955 305.994 105.435 306.091C105.426 305.856 105.42 305.614 105.407 305.382C105.273 302.154 105.122 299.08 104.913 296.156C104.734 293.708 104.515 291.364 104.23 289.127C107.633 298.121 110.009 305.028 108.888 305.329Z" fill="#9ED9F0"/>
<path d="M68.6781 248.877C68.6781 248.877 54.2156 251.071 47.9892 256.264C41.7628 261.46 41.1336 294.536 39.0581 303.884C38.6512 305.721 38.2818 308.686 37.9687 312.296C36.8543 324.985 38.191 342.583 39.2929 349.089C39.4087 350.656 39.3492 352.959 38.4446 355.228C36.8512 359.218 36.51 360.358 39.3555 362.64C42.2011 364.921 45.2783 368.112 47.4414 367.2C49.1099 366.495 48.8156 355.413 48.5902 350.383C51.0883 339.634 55.1328 319.457 58.9425 299.904C64.0201 273.836 68.6781 248.877 68.6781 248.877Z" fill="#D9935C"/>
<path d="M68.6781 248.88C68.6781 248.88 65.9922 263.262 62.4768 281.596C61.3623 287.412 60.1634 293.627 58.9425 299.907C53.9652 309.673 49.6953 316.31 48.3743 315.063C45.6821 312.518 40.9583 312.205 37.9688 312.299C38.2818 308.689 38.6512 305.724 39.0581 303.887C39.2209 303.148 39.3774 302.264 39.5277 301.255C41.2713 289.49 42.2574 261.049 47.9892 256.27C51.0069 253.757 55.953 251.942 60.2542 250.739H60.2573C62.4549 250.127 64.4834 249.676 66.0016 249.366C67.6388 249.037 68.6781 248.88 68.6781 248.88Z" fill="#9ED9F0"/>
<path d="M48.3744 315.06C45.6823 312.515 40.9585 312.202 37.9658 312.296C38.282 308.686 38.6483 305.721 39.0552 303.884C39.218 303.145 39.3745 302.258 39.5248 301.249L54.4443 265.189C54.4474 265.193 49.6924 316.311 48.3744 315.06Z" fill="#74ACBE"/>
<path d="M89.3296 248.511C89.4392 243.477 89.3578 237.466 88.6785 232.389L68.6094 235.674C68.6094 235.674 68.6094 241.804 68.697 248.608C68.6845 248.611 68.6782 248.611 68.6782 248.611C68.6782 248.611 68.1304 254.923 75.8939 255.844C83.6573 256.768 89.5362 253.381 89.3296 248.511Z" fill="#D9935C"/>
<path d="M72.5352 515.42C75.0583 513.866 73.5807 502.264 73.5807 502.264C73.5807 502.264 61.7634 492.871 60.1701 500.102C58.5767 507.332 49.0164 510.613 43.5695 511.518C39.8098 512.142 38.6516 514.232 38.2979 515.467L72.5352 515.42Z" fill="#233862"/>
<path d="M106.941 305.808C106.941 305.808 103.184 310.895 102.414 310.895C101.644 310.895 92.1653 307.219 94.8856 298.995C97.6059 290.772 104.23 289.126 104.23 289.126C104.518 291.364 104.737 293.705 104.912 296.156C105.125 299.08 105.275 302.154 105.407 305.382C105.416 305.614 105.423 305.855 105.435 306.091C105.955 305.993 106.456 305.896 106.938 305.79L106.941 305.808Z" fill="#74ACBE"/>
<path d="M108.747 515.42C111.27 513.866 109.793 502.264 109.793 502.264C109.793 502.264 97.9754 492.871 96.382 500.102C94.7886 507.332 85.2283 510.613 79.7814 511.518C76.0218 512.142 74.8635 514.232 74.5098 515.467L108.747 515.42Z" fill="#233862"/>
<path d="M91.2392 226.598C91.2392 226.598 104.634 205.453 78.9117 204.052C78.9117 204.052 69.2637 205.19 67.0787 203.002C67.0787 203.002 59.5939 214.388 66.5841 226.598C73.5743 238.805 91.2392 226.598 91.2392 226.598Z" fill="#B64C41"/>
<path d="M69.2039 237.632C71.1542 239.168 76.8703 240.694 78.5232 240.873C78.5232 240.873 87.0003 238.98 88.5436 238.049C90.929 236.601 90.7756 233.668 90.8977 229.594C91.0448 224.771 91.5301 220.982 90.9916 218.199C90.353 214.87 88.2462 212.978 82.3454 212.464C71.5142 211.523 67.0032 214.237 66.8154 217.873C66.7653 218.847 66.7215 219.778 66.6902 220.662C66.2582 231.994 67.1535 236.015 69.2039 237.632Z" fill="#D9935C"/>
<path d="M66.5928 224.376C66.6961 230.941 68.4679 234.831 69.7483 235.32C71.2227 235.884 72.9601 236.354 74.7726 236.664C75.383 236.736 75.9684 236.714 75.959 236.369C75.9402 235.332 74.5566 234.057 75.5834 233.138C76.6602 232.176 82.4452 231.853 82.9117 233.95C83.1402 234.975 81.2745 236.78 82.5517 236.821C82.9398 236.755 83.3186 236.68 83.6849 236.586C85.7916 236.037 87.4445 235.037 88.1395 234.618C90.5248 233.17 90.3683 230.948 90.8974 226.905C91.2386 224.288 91.2386 225.708 90.8974 229.588C90.5405 233.649 91.2386 236.257 88.5433 238.043C87.0438 239.036 78.3976 242.926 78.3976 242.926C78.5228 240.867 71.1538 239.162 69.2036 237.626C67.3942 236.206 66.4833 232.913 66.5928 224.376Z" fill="#B64C41"/>
<path d="M107.092 344.212C107.132 345.303 101.714 349.123 92.6167 352.009C91.8841 352.244 91.1235 352.467 90.344 352.686C90.3346 352.69 90.3252 352.699 90.3252 352.708C89.4769 362.677 87.1791 376.758 85.1068 390.35C85.1068 390.35 85.1068 390.35 85.1068 390.353C84.5715 393.876 84.0518 397.364 83.5729 400.739C82.3082 409.674 81.3628 417.813 81.2595 423.671V423.733C81.2157 426.422 83.479 433.129 83.6512 434.677C83.7576 435.624 83.8421 436.626 83.9047 437.676C84.152 441.873 84.0519 446.831 83.7138 452.127C82.2268 475.234 76.1288 504.799 73.9531 506.056C69.6269 508.56 61.757 506.053 57.7564 505.467C56.1004 505.219 54.7731 503.809 54.8607 502.136C56.8141 463.788 51.2013 410.383 47.0065 377.551C46.897 376.696 46.7874 375.859 46.681 375.035C46.1801 371.164 45.8483 367.548 45.6385 364.288C45.4476 361.43 45.3537 358.832 45.313 356.582C45.3036 355.88 45.2973 355.209 45.2911 354.576C45.2817 352.52 46.9126 339.066 46.9877 277.424C46.9877 276.002 48.1554 274.836 49.5766 274.836H87.2292C90.8668 274.836 93.7968 277.816 93.7499 281.458C93.6904 286.159 93.8594 292.724 94.8799 298.992C96.2699 307.551 99.2469 315.546 105.389 317.47C105.395 317.473 105.401 317.476 105.404 317.483C105.433 317.545 105.602 317.918 105.871 318.542C105.871 318.545 105.874 318.548 105.874 318.551C105.933 320.099 105.996 321.673 106.068 323.28C106.081 323.603 106.096 323.926 106.112 324.252C106.118 324.443 106.128 324.631 106.14 324.822C106.153 325.148 106.171 325.474 106.187 325.803C106.212 326.342 106.237 326.888 106.268 327.439C106.293 327.872 106.315 328.301 106.34 328.737C106.384 329.57 106.437 330.416 106.491 331.269C106.503 331.542 106.522 331.814 106.541 332.09C106.613 333.19 106.688 334.309 106.772 335.434C106.797 335.779 106.822 336.127 106.851 336.474C106.86 336.641 106.876 336.81 106.888 336.976C106.923 337.418 106.957 337.86 106.995 338.302C107.032 338.772 107.073 339.242 107.114 339.718C107.267 341.454 107.045 342.996 107.092 344.212Z" fill="#2B478B"/>
<path d="M83.7139 452.13C82.227 475.237 76.1289 504.803 73.9533 506.059C69.627 508.563 61.7572 506.056 57.7565 505.47C56.1005 505.223 54.7732 503.812 54.8609 502.139C56.8143 463.792 51.2014 410.386 47.0067 377.554C46.8971 376.699 46.7875 375.862 46.6811 375.038C46.1802 371.167 45.8484 367.551 45.6387 364.292C47.6327 351.273 58.8929 350.577 69.1043 377.504C73.4806 387.934 84.052 446.834 83.7139 452.13Z" fill="#233862"/>
<path d="M107.51 422.586C107.82 425.256 110.941 431.609 111.317 433.123C116.479 453.907 113.627 503.189 111.07 505.16C107.11 508.209 98.9769 506.761 94.9355 506.705C93.2608 506.68 91.7613 505.451 91.6267 503.784C88.4524 464.519 75.2984 410.586 66.8401 378.858C62.5796 362.878 61.9785 351.126 61.9785 351.126C61.9785 351.126 101.513 326.875 105.789 340.122C109.57 351.85 105.128 402.075 107.51 422.586Z" fill="#2B478B"/>
<path d="M93.0231 200.608C93.0231 200.608 91.94 199.135 89.996 197.48C89.6892 197.214 89.3574 196.944 89.0037 196.681C85.4319 193.961 79.7157 191.303 72.8226 194.183C70.9537 194.964 69.401 196.023 68.1113 197.248C67.8045 197.537 67.5165 197.834 67.2442 198.141C61.2682 204.779 61.7753 215.19 61.7753 215.19L96.26 214.82C96.3727 205.18 93.0231 200.608 93.0231 200.608Z" fill="#FFA412"/>
<path d="M86.5835 214.918C86.5741 214.789 85.5661 201.764 89.9957 197.48C89.6889 197.214 89.7609 197.261 89.4103 196.994C84.7428 201.858 84.6489 214.388 84.6896 214.936L86.5835 214.918Z" fill="#E27F2B"/>
<path d="M73.6614 215.059C73.3358 206.603 68.6746 198.185 68.1143 197.245C67.8075 197.533 67.7511 197.59 67.4788 197.897C68.2864 199.323 71.3323 207.474 71.6235 215.08L61.7783 215.187C61.7783 215.187 70.9629 217.563 77.8812 217.478C84.7994 217.393 96.263 214.817 96.263 214.817L73.6614 215.059Z" fill="#E27F2B"/>
<path d="M94.9608 249.394C94.9608 249.394 83.3094 262.983 82.627 274.839H88.5497C88.5497 274.839 90.0586 261.949 98.8268 250.206L94.9608 249.394Z" fill="#2B478B"/>
<path d="M65.9989 249.366C57.6532 262.008 56.6608 274.839 56.6608 274.839H50.7412C51.2327 265.518 57.024 255.593 60.2514 250.736H60.2545C62.4521 250.124 64.4806 249.673 65.9989 249.366Z" fill="#2B478B"/>
<path d="M126.146 322.81C125.924 318.294 125.307 312.923 124.13 306.536C124.127 309.613 123.927 312.525 123.476 315.157C124.941 326.847 124.374 335.782 121.773 340.84C120.161 343.977 117.929 346.384 115.227 347.995C116.605 346.654 117.819 345.055 118.846 343.212C120.846 339.624 122.687 332.946 122.005 320.626C121.867 320.977 121.723 321.315 121.57 321.645C121.57 321.645 121.062 321.732 120.086 321.833C120.486 330.84 119.525 337.737 117.228 341.865C115.487 344.993 113.124 347.327 110.303 348.813C111.192 347.932 112.009 346.942 112.767 345.836C115.14 342.344 117.616 335.481 117.722 322.011C117.131 322.046 116.473 322.074 115.753 322.093C115.644 332.419 114.122 340.104 111.258 344.303C111.127 344.497 110.989 344.692 110.848 344.88C113.02 341.147 115.099 334.381 115.205 322.102C114.589 322.112 113.931 322.118 113.233 322.112C113.13 332.429 111.602 340.107 108.741 344.303C106.947 346.932 104.7 348.86 102.117 350.048C101.328 349.913 100.521 349.734 99.7099 349.518C99.6003 349.493 99.4908 349.465 99.3843 349.43C99.3718 349.427 99.3624 349.424 99.3499 349.421C99.2434 349.393 99.1339 349.361 99.0274 349.33C98.0382 349.042 97.0772 348.713 96.1475 348.343C84.7559 343.814 78.2196 333.616 77.5841 325.233C77.1333 319.278 77.6154 310.412 78.8175 300.769C81.1841 281.765 86.3399 259.733 92.6101 250.977C92.7165 250.83 92.8167 250.685 92.9231 250.548C92.9231 250.548 92.9231 250.544 92.9263 250.544C93.0578 250.372 93.1892 250.203 93.3238 250.046C93.5555 249.767 93.784 249.507 94.0188 249.269C94.0219 249.266 94.0219 249.266 94.025 249.263C94.5165 248.758 95.008 248.36 95.487 248.065C95.6184 248.144 95.7624 248.241 95.9189 248.366C96.3259 248.677 96.8111 249.15 97.3715 249.864C97.3746 249.871 97.3809 249.874 97.384 249.88C98.0382 250.021 98.7175 250.184 99.4125 250.359C99.7349 250.447 100.067 250.532 100.399 250.629C100.42 250.632 100.439 250.635 100.461 250.645C100.539 250.66 100.618 250.685 100.693 250.707C101.1 250.82 101.507 250.939 101.917 251.061C102.148 251.134 102.383 251.206 102.615 251.278C102.89 251.365 103.163 251.453 103.435 251.544C103.732 251.644 104.03 251.745 104.324 251.848C104.637 251.958 104.95 252.071 105.257 252.187C105.251 252.177 105.244 252.168 105.238 252.158C101.547 246.335 98.9241 244.978 97.2212 245.06C96.9551 245.072 96.6922 245.107 96.4229 245.166C96.113 245.085 95.8282 245.051 95.5683 245.051C94.9986 245.054 94.4257 245.16 93.8529 245.367C92.0998 245.536 90.256 246.646 88.3465 248.686C88.215 248.821 88.0867 248.965 87.9552 249.112C86.894 250.309 85.8328 251.767 84.7747 253.437C84.7684 253.446 84.7621 253.456 84.7559 253.465C74.6603 269.439 65.2471 304.925 64.6868 321.535C64.2454 334.679 74.3535 346.431 84.5681 351.245C85.5667 351.715 86.559 352.122 87.5388 352.464C88.0929 352.658 88.6407 352.831 89.1854 352.984C89.1979 352.987 89.2073 352.99 89.2199 352.994C91.336 353.589 93.3927 353.884 95.3649 353.884C95.7875 353.884 96.2038 353.871 96.617 353.843C97.0428 353.871 97.4654 353.884 97.8848 353.884C99.7412 353.884 101.526 353.623 103.21 353.106C103.476 353.094 103.742 353.075 104.005 353.056C104.23 353.034 104.456 353.015 104.675 352.987C105.107 352.937 105.536 352.871 105.958 352.793C107.195 352.799 108.4 352.708 109.564 352.514C113.233 351.912 116.489 350.333 119.153 347.851C120.831 346.29 122.274 344.372 123.435 342.116C125.138 338.794 126.647 332.958 126.146 322.81ZM66.6496 321.632C67.1442 306.931 75.1737 275.707 84.0515 258.849C83.7416 259.595 83.4286 260.366 83.1218 261.159C74.7323 278.947 67.6857 307.238 67.2068 321.535C67.0033 327.514 68.9849 333.203 72.1685 338.082C68.3337 332.695 66.4774 326.668 66.6496 321.632ZM87.7893 349.01C75.1549 343.056 68.8565 330.73 69.1664 321.632C69.4356 313.556 71.9838 300.487 75.6965 287.556C72.8008 301.534 71.1855 315.712 71.5831 324.421C72.084 335.45 79.91 344.62 88.6501 349.396C88.3621 349.277 88.0804 349.148 87.7893 349.01ZM73.5365 324.29C72.9605 311.679 76.9424 286.287 82.8307 268.073C83.4912 266.036 84.1736 264.086 84.878 262.253C85.1409 261.695 85.4039 261.153 85.6668 260.617C81.134 273.046 77.7281 290.81 76.2506 305.727C75.493 313.44 75.2519 320.391 75.6339 325.455C76.3226 334.556 81.9886 342.159 88.9506 346.995C79.2432 341.624 73.8902 332.065 73.5365 324.29Z" fill="#FFA412"/>
<path d="M106.941 305.809C106.619 305.856 100.568 306.962 100.236 307.012C90.1528 308.491 76.5856 309.143 75.1737 309.209C75.0423 309.087 70.2277 304.599 68.3526 304.599C66.4493 304.599 60.9648 306.598 60.4044 308.14C59.8441 309.679 59.6218 312.449 61.1871 313.064C62.7554 313.678 69.2479 315.22 70.9258 315.373C71.1543 315.395 71.4329 315.395 71.7334 315.367C83.7949 318.915 94.1754 320.66 102.174 321.482C102.887 321.557 107.013 322.093 110.679 322.055C110.547 315.082 108.203 308.642 106.941 305.809Z" fill="#D9935C"/>
<path d="M327.222 161.941V159.29H321.425V141.787H316.626V159.29H304.47V141.787H299.671V159.29H286.458V141.787H281.659V159.29H269.503V141.787H264.705V159.29H258.347V161.941H264.705V170.462H258.347V173.114H264.705V181.635H258.347V184.286H264.705V192.807H258.347V195.459H264.705V203.98H258.347V206.631H264.705V215.153H258.347V217.81H264.705V224.705H258.347V227.356H264.705V235.877H258.347V238.529H264.705V247.05H258.347V249.701H264.705V258.223H258.347V260.874H264.705V269.395H258.347V272.047H264.705V280.568H258.347V283.219H264.705V291.352H258.347V294.003H264.705V302.524H258.347V305.176H264.705V313.697H258.347V316.348H264.705V324.869H258.347V327.521H264.705V336.042H258.347V338.693H264.705V347.215H258.347V349.866H264.705V356.761H258.347V359.412H264.705V367.933H258.347V370.584H264.705V379.106H258.347V381.757H264.705V390.278H258.347V392.93H264.705V401.451H258.347V404.102H264.705V412.623H258.347V415.275H264.705V422.878H258.347V425.529H264.705V434.05H258.347V436.702H264.705V445.223H258.347V447.874H264.705V456.395H258.347V459.047H264.705V467.568H258.347V470.219H264.705V478.741H258.347V481.392H264.705V488.287H258.347V490.938H264.705V499.459H258.347V502.11H264.705V510.632H258.347V513.283H327.222V510.632H321.425V502.11H327.222V499.459H321.425V490.938H327.222V488.287H321.425V481.392H327.222V478.741H321.425V470.219H327.222V467.568H321.425V459.047H327.222V456.395H321.425V447.874H327.222V445.223H321.425V436.702H327.222V434.05H321.425V425.529H327.222V422.878H321.425V415.275H327.222V412.623H321.425V404.102H327.222V401.451H321.425V392.93H327.222V390.278H321.425V381.757H327.222V379.106H321.425V370.584H327.222V367.933H321.425V359.412H327.222V356.761H321.425V349.866H327.222V347.215H321.425V338.693H327.222V336.042H321.425V327.521H327.222V324.869H321.425V316.348H327.222V313.697H321.425V305.185H327.222V302.534H321.425V294.012H327.222V291.361H321.425V283.228H327.222V280.577H321.425V272.056H327.222V269.405H321.425V260.883H327.222V258.232H321.425V249.711H327.222V247.059H321.425V238.538H327.222V235.887H321.425V227.366H327.222V224.705H321.425V217.81H327.222V215.159H321.425V206.638H327.222V203.986H321.425V195.465H327.222V192.814H321.425V184.293H327.222V181.641H321.425V173.12H327.222V170.469H321.425V161.947H327.222V161.941ZM299.671 161.941V170.462H286.458V161.941H299.671ZM286.458 499.49V490.969H299.671V499.49H286.458ZM299.671 502.142V510.663H286.458V502.142H299.671ZM286.458 488.315V481.42H299.671V488.315H286.458ZM286.458 478.769V470.247H299.671V478.769H286.458ZM286.458 467.596V459.075H299.671V467.596H286.458ZM286.458 456.42V447.899H299.671V456.42H286.458ZM286.458 445.248V436.727H299.671V445.248H286.458ZM286.458 434.072V425.551H299.671V434.072H286.458ZM286.458 422.9V415.297H299.671V422.9H286.458ZM286.458 412.645V404.124H299.671V412.645H286.458ZM286.458 401.47V392.948H299.671V401.47H286.458ZM286.458 390.297V381.776H299.671V390.297H286.458ZM286.458 379.124V370.603H299.671V379.124H286.458ZM286.458 367.949V359.428H299.671V367.949H286.458ZM286.458 356.776V349.882H299.671V356.776H286.458ZM286.458 347.227V338.706H299.671V347.227H286.458ZM286.458 336.055V327.533H299.671V336.055H286.458ZM286.458 324.882V316.361H299.671V324.882H286.458ZM286.458 313.706V305.185H299.671V313.706H286.458ZM286.458 302.534V294.012H299.671V302.534H286.458ZM286.458 291.358V283.225H299.671V291.358H286.458ZM286.458 280.574V272.053H299.671V280.574H286.458ZM286.458 269.401V260.88H299.671V269.401H286.458ZM286.458 258.226V249.705H299.671V258.226H286.458ZM286.458 247.053V238.532H299.671V247.053H286.458ZM286.458 235.877V227.356H299.671V235.877H286.458ZM286.458 224.705V217.81H299.671V224.705H286.458ZM286.458 215.159V206.638H299.671V215.159H286.458ZM286.458 203.983V195.462H299.671V203.983H286.458ZM286.458 192.811V184.289H299.671V192.811H286.458ZM286.458 181.635V173.114H299.671V181.635H286.458ZM269.503 161.941H281.659V170.462H269.503V161.941ZM269.503 173.114H281.659V181.635H269.503V173.114ZM269.503 184.289H281.659V192.811H269.503V184.289ZM269.503 195.462H281.659V203.983H269.503V195.462ZM269.503 206.635H281.659V215.156H269.503V206.635ZM269.503 217.81H281.659V224.705H269.503V217.81ZM269.503 227.356H281.659V235.877H269.503V227.356ZM269.503 238.532H281.659V247.053H269.503V238.532ZM269.503 249.705H281.659V258.226H269.503V249.705ZM269.503 260.877H281.659V269.398H269.503V260.877ZM269.503 272.053H281.659V280.574H269.503V272.053ZM269.503 283.225H281.659V291.358H269.503V283.225ZM269.503 294.012H281.659V302.534H269.503V294.012ZM269.503 305.185H281.659V313.706H269.503V305.185ZM269.503 316.358H281.659V324.879H269.503V316.358ZM269.503 327.533H281.659V336.055H269.503V327.533ZM269.503 338.706H281.659V347.227H269.503V338.706ZM269.503 349.882H281.659V356.776H269.503V349.882ZM269.503 359.428H281.659V367.949H269.503V359.428ZM269.503 370.6H281.659V379.121H269.503V370.6ZM269.503 381.776H281.659V390.297H269.503V381.776ZM269.503 392.948H281.659V401.47H269.503V392.948ZM269.503 404.124H281.659V412.645H269.503V404.124ZM269.503 415.297H281.659V422.9H269.503V415.297ZM269.503 425.551H281.659V434.072H269.503V425.551ZM269.503 436.727H281.659V445.248H269.503V436.727ZM269.503 447.899H281.659V456.42H269.503V447.899ZM269.503 459.072H281.659V467.593H269.503V459.072ZM269.503 470.247H281.659V478.769H269.503V470.247ZM269.503 481.42H281.659V488.315H269.503V481.42ZM269.503 490.969H281.659V499.49H269.503V490.969ZM269.503 502.142H281.659V510.663H269.503V502.142ZM316.626 510.663H304.47V502.142H316.626V510.663ZM316.626 499.49H304.47V490.969H316.626V499.49ZM316.626 488.315H304.47V481.42H316.626V488.315ZM316.626 478.769H304.47V470.247H316.626V478.769ZM316.626 467.596H304.47V459.075H316.626V467.596ZM316.626 456.42H304.47V447.899H316.626V456.42ZM316.626 445.248H304.47V436.727H316.626V445.248ZM316.626 434.072H304.47V425.551H316.626V434.072ZM316.626 422.9H304.47V415.297H316.626V422.9ZM316.626 412.645H304.47V404.124H316.626V412.645ZM316.626 401.47H304.47V392.948H316.626V401.47ZM316.626 390.297H304.47V381.776H316.626V390.297ZM316.626 379.124H304.47V370.603H316.626V379.124ZM316.626 367.949H304.47V359.428H316.626V367.949ZM316.626 356.776H304.47V349.882H316.626V356.776ZM316.626 347.227H304.47V338.706H316.626V347.227ZM316.626 336.055H304.47V327.533H316.626V336.055ZM316.626 324.882H304.47V316.361H316.626V324.882ZM316.626 313.706H304.47V305.185H316.626V313.706ZM316.626 302.534H304.47V294.012H316.626V302.534ZM316.626 291.358H304.47V283.225H316.626V291.358ZM316.626 280.574H304.47V272.053H316.626V280.574ZM316.626 269.401H304.47V260.88H316.626V269.401ZM316.626 258.226H304.47V249.705H316.626V258.226ZM316.626 247.053H304.47V238.532H316.626V247.053ZM316.626 235.877H304.47V227.356H316.626V235.877ZM316.626 224.705H304.47V217.81H316.626V224.705ZM316.626 215.159H304.47V206.638H316.626V215.159ZM316.626 203.983H304.47V195.462H316.626V203.983ZM316.626 192.811H304.47V184.289H316.626V192.811ZM316.626 181.635H304.47V173.114H316.626V181.635ZM316.626 170.462H304.47V161.941H316.626V170.462Z" fill="#D2E4FF"/>
<path d="M385.567 0H383.87V30.2615H385.567V0Z" fill="#D2E4FF"/>
<path d="M479.645 0H477.948V30.2615H479.645V0Z" fill="#D2E4FF"/>
<path d="M397.453 0H395.756V30.2615H397.453V0Z" fill="#D2E4FF"/>
<path d="M488.135 0H486.438V30.2615H488.135V0Z" fill="#D2E4FF"/>
<path d="M145.091 446.047C144.55 445.922 144.005 446.267 143.883 446.806L134.717 486.883C132.241 486.955 129.724 489.641 128.869 493.379L127.996 497.197C127.949 497.394 127.896 497.635 127.877 497.839L138.057 500.174C138.154 499.986 138.21 499.748 138.254 499.55L139.128 495.733C139.979 492.004 138.89 488.5 136.686 487.343L145.855 447.26C145.971 446.715 145.63 446.169 145.091 446.047Z" fill="#2B478B"/>
<path d="M118.452 497.776C118.452 497.776 139.595 492.295 146.344 496.758C153.093 501.22 142.907 505.937 142.907 505.937L118.452 497.776Z" fill="#E69D43"/>
<path d="M281.719 256.094C277.677 268.48 255.652 289.885 252.609 292.019C252.609 292.019 247.484 283.47 248.508 278.681C249.344 274.773 257.921 260.839 260.854 253.992C261.008 253.634 261.146 253.296 261.265 252.982C261.668 251.933 261.878 251.118 261.831 250.635C261.684 249.146 257.013 245.53 251.585 241.236C244.529 235.655 236.196 228.942 234.841 224.3C232.449 216.093 224.166 183.59 224.166 183.59C224.166 183.59 244.748 188.047 250.559 193.177C256.365 198.307 281.305 241.061 282.329 252.005C282.442 253.196 282.216 254.578 281.719 256.094Z" fill="#FFA412"/>
<path d="M281.719 256.095C277.677 268.48 255.652 289.885 252.609 292.019C252.609 292.019 247.485 283.47 248.508 278.681C249.391 274.569 258.832 259.363 261.265 252.983C264.924 252.346 273.514 251.566 281.719 256.095Z" fill="#D9935C"/>
<path d="M224.172 180.732L224.16 183.255C224.16 183.255 224.845 191.15 215.138 192.303C205.427 193.459 198.118 189.934 198.381 183.841C199.254 179.125 200.172 175.179 200.237 171.274C200.262 169.823 200.162 168.284 199.893 166.548L218.707 166.172L224.248 167.078L224.172 180.732Z" fill="#D9935C"/>
<path d="M224.244 167.081L224.172 180.735C222.175 181.666 219.918 182.233 217.392 182.233C208.746 182.233 203.155 175.887 200.234 171.277C200.259 169.826 200.159 168.287 199.89 166.551L218.703 166.175L224.244 167.081Z" fill="#CB7D45"/>
<path d="M207.591 515.442C207.591 515.442 206.677 508.322 204.564 504.085C202.447 499.851 188.99 502.546 188.99 502.546C188.99 502.546 186.298 504.856 185.722 515.634L207.591 515.442Z" fill="#233862"/>
<path d="M253.442 515.42C250.281 513.487 252.081 499.074 252.081 499.074C252.081 499.074 266.815 487.271 268.841 496.306C270.866 505.342 282.84 509.4 289.655 510.506C294.36 511.271 295.816 513.878 296.266 515.42H253.442Z" fill="#233862"/>
<path d="M222.92 408.972C223.521 412.282 223.9 414.996 224 416.942C225.371 443.69 246.492 504.85 250.267 506.279C256.112 508.488 265.318 503.793 270.133 502.258C272.13 501.619 273.476 499.603 273.032 497.56C262.573 449.419 258.729 380.102 257.33 339.06C256.622 318.388 253.079 304.11 253.079 304.11C253.079 304.11 201.568 290.349 201.264 307.755C200.992 323.155 218.328 383.562 222.92 408.972Z" fill="#2B478B"/>
<path d="M222.92 408.972L257.333 339.057C256.625 318.385 253.082 304.107 253.082 304.107C253.082 304.107 201.568 290.349 201.264 307.755C200.992 323.155 218.328 383.562 222.92 408.972Z" fill="#233862"/>
<path d="M234.38 307.814L207.149 505.411C207.149 505.411 195.191 508.297 185.887 505.987C185.887 505.987 177.914 400.896 178.578 375.492C179.241 350.085 172.855 307.51 180.036 302.813C187.217 298.118 234.38 307.814 234.38 307.814Z" fill="#2B478B"/>
<path d="M254.566 308.181C254.566 308.181 240.651 316.304 220.494 316.076C212.637 315.988 205.8 315.399 199.999 314.534C183.834 312.133 175.676 307.614 175.739 305.931C175.792 304.411 175.898 299.368 176.089 297.2C178.659 267.54 177.329 244.471 180.788 227.14C180.829 226.93 180.869 226.723 180.913 226.516C185.487 204.485 192.659 191.827 196.218 186.634C197.52 184.738 198.337 183.841 198.378 183.841C198.378 187.953 207.124 191.504 214.252 191.037C220.259 190.645 224.157 186.07 224.157 183.594L224.163 183.587C224.654 183.587 251.254 202.097 251.279 219.299C251.373 296.385 256.04 308.206 254.566 308.181Z" fill="#FFA412"/>
<path d="M200.037 314.28C200.024 314.364 200.012 314.449 199.999 314.533C183.834 312.133 175.676 307.614 175.739 305.931C175.792 304.411 175.898 299.368 176.089 297.2C178.659 267.54 177.329 244.471 180.788 227.14C189.275 238.494 206.72 268.232 200.037 314.28Z" fill="#E27F2B"/>
<path d="M244.32 277.409L242.147 284.645L239.987 291.828L146.21 263.588C146.075 263.594 145.947 263.582 145.825 263.544C145.696 263.506 145.574 263.444 145.461 263.365C144.278 262.529 144.065 259.46 144.973 256.001C145.02 255.809 145.076 255.618 145.133 255.424C146.228 251.707 148.226 248.955 149.756 248.933C149.882 248.93 150.004 248.946 150.123 248.981C150.245 249.018 150.357 249.071 150.467 249.147L244.32 277.409Z" fill="#E9F3FE"/>
<path d="M242.147 284.648L239.987 291.831L146.21 263.591C146.075 263.597 145.947 263.585 145.825 263.547C145.696 263.51 145.574 263.447 145.461 263.368C144.278 262.532 144.065 259.464 144.973 256.004C148.805 258.884 167.115 271.623 198.362 277.822C230.665 284.225 240.66 284.626 242.147 284.648Z" fill="#BED4F4"/>
<path d="M244.498 277.368C242.93 276.904 240.698 279.79 239.511 283.811C238.325 287.832 238.635 291.471 240.203 291.934C241.771 292.398 244.003 289.512 245.19 285.491C246.376 281.467 246.066 277.832 244.498 277.368Z" fill="#AFCDFB"/>
<path d="M151.146 246.495L140.089 244.699C139.971 244.643 139.855 244.599 139.723 244.58C139.601 244.565 139.482 244.558 139.357 244.58C137.839 244.806 136.223 247.793 135.622 251.622C135.588 251.823 135.56 252.02 135.538 252.218C135.322 253.913 135.353 255.483 135.579 256.74C135.826 258.085 136.299 259.062 136.95 259.429C136.962 259.438 136.978 259.445 136.987 259.454C137.109 259.52 137.238 259.564 137.369 259.583C137.494 259.605 137.626 259.598 137.757 259.576L234.421 275.278L235.62 267.875L236.826 260.416L151.146 246.495Z" fill="#E9F3FE"/>
<path d="M191.325 266.847C170.649 265.518 159.689 254.571 151.146 246.498L140.089 244.703C139.971 244.646 139.855 244.602 139.723 244.584C139.601 244.568 139.482 244.562 139.357 244.584C137.839 244.809 136.223 247.796 135.622 251.626C135.588 251.826 135.56 252.024 135.538 252.221C135.322 253.916 135.353 255.487 135.579 256.743C136.098 258.213 136.63 259.213 136.95 259.432C136.962 259.442 136.978 259.448 136.987 259.457C137.109 259.523 137.238 259.567 137.369 259.586C137.494 259.608 137.626 259.602 137.757 259.58L234.421 275.281L235.62 267.878C234.149 268.051 224.188 268.963 191.325 266.847Z" fill="#BED4F4"/>
<path d="M237.004 260.35C235.389 260.097 233.551 263.249 232.903 267.392C232.252 271.536 233.035 275.099 234.65 275.356C236.265 275.61 238.103 272.457 238.751 268.314C239.402 264.171 238.619 260.604 237.004 260.35Z" fill="#AFCDFB"/>
<path d="M202.617 288.829C180.197 285.259 165.374 275.851 159.292 271.304C157.213 269.749 156.155 268.762 156.155 268.762C144.666 244.58 165.452 202.184 169.25 194.998C173.35 187.248 198.381 183.841 198.381 183.841C198.381 183.841 194.384 195.612 192.822 210.959C191.259 226.306 174.603 256.22 175.285 258.73C175.457 259.363 177.467 260.689 180.403 262.366C189.106 267.323 205.919 275.321 206.94 277.199C208.308 279.706 202.617 288.829 202.617 288.829Z" fill="#D9935C"/>
<path d="M206.943 277.199C206.943 277.199 219.471 272.181 222.545 274.234C225.619 276.287 230.743 279.364 230.743 281.417C230.743 283.47 224.251 288.942 218.785 290.653C213.319 292.364 202.613 288.829 202.613 288.829L206.943 277.199Z" fill="#D9935C"/>
<path d="M192.822 210.959C191.259 226.306 174.603 256.22 175.285 258.73C175.457 259.363 177.467 260.689 180.403 262.366C180.218 262.378 180.031 262.381 179.84 262.375C166.736 261.798 160.804 269.053 159.292 271.3C157.213 269.746 156.155 268.759 156.155 268.759C144.666 244.577 165.452 202.181 169.25 194.995C173.35 187.245 198.381 183.838 198.381 183.838C198.381 183.838 194.384 195.615 192.822 210.959Z" fill="#FFA412"/>
<path d="M225.343 173.715C225.343 173.715 201.249 178.589 198.447 163.521C195.645 148.453 190.652 138.932 205.916 135.183C221.183 131.435 225.249 136.628 227.406 141.429C229.563 146.227 231.538 172.057 225.343 173.715Z" fill="#D9935C"/>
<path d="M198.929 167.864C198.929 167.864 194.271 157.911 190.386 153.492C186.501 149.073 188.62 126.975 205.396 127.681C222.172 128.389 228.176 140.411 228.352 142.708C228.527 145.005 214.932 143.238 211.222 146.243C207.512 149.248 211.047 154.197 206.808 155.968C202.57 157.735 199.214 157.735 199.921 161.624C200.629 165.511 198.929 167.864 198.929 167.864Z" fill="#233862"/>
<path d="M204.107 117.417C199.308 118.623 195.705 120.554 193.019 122.876C192.753 123.105 192.493 123.34 192.243 123.581L192.239 123.584C182.291 133.084 186.26 148.199 186.26 148.199C186.26 148.199 187.585 152.019 188.496 153.501C189.406 154.984 202.617 153.272 203.299 150.424C203.982 147.575 206.602 144.61 206.602 144.61C206.602 144.61 220.526 143.651 221.462 143.585C224.608 143.357 233.586 140.229 233.586 140.229C233.483 139.345 228.43 111.303 204.107 117.417Z" fill="#FFA412"/>
<path d="M241.835 137.264C240.163 136.857 237.314 136.399 232.622 136.227C232.622 136.227 228.681 139.496 220.845 141.987C217.164 137.343 206.674 126.148 193.016 122.876C192.975 122.867 192.937 122.854 192.897 122.845C192.606 123.212 192.443 123.334 192.239 123.581L192.236 123.585C192.174 123.657 192.111 123.741 192.039 123.848C203.158 125.788 213.727 138.289 217.355 142.968C214.243 143.736 210.662 144.341 206.602 144.607C206.602 144.607 230.938 145.062 242.06 139.198C242.908 138.753 242.764 137.493 241.835 137.264Z" fill="#E27F2B"/>
<path d="M266.614 247.899C266.163 250.457 264.786 253.149 260.854 253.992C261.008 253.635 261.145 253.296 261.264 252.983C261.668 251.933 261.878 251.118 261.831 250.635C261.684 249.147 257.013 245.53 251.585 241.237C251.137 238.802 250.045 231.575 251.582 225.839C253.46 218.829 267.128 244.991 266.614 247.899Z" fill="#E27F2B"/>
<path d="M177.789 260.639C177.789 260.639 161.048 259.269 155.582 269.019C155.582 269.019 156.048 272.307 159.288 271.304C159.288 271.304 173.45 261.614 180.4 262.366C180.403 262.366 179.326 260.667 177.789 260.639Z" fill="#E27F2B"/>
<path d="M260.854 253.992C260.854 253.992 269.538 254.355 280.473 259.122C280.473 259.122 282.899 256.734 281.932 255.368C280.961 253.998 265.572 249.081 260.854 253.992Z" fill="#E27F2B"/>
<path d="M381.41 197.057C388.935 158.437 395.835 121.463 395.835 121.463C395.835 121.463 374.41 124.713 365.188 132.407C355.962 140.101 355.03 189.103 351.956 202.955C351.351 205.676 350.807 210.066 350.34 215.416C348.59 235.338 350.769 265.171 352.416 273.535C352.306 274.341 351.624 278.286 347.992 285.861C347.992 285.861 346.114 291.675 358.414 300.396C366.249 305.959 373.233 239.037 381.41 197.057Z" fill="#D9935C"/>
<path d="M395.831 121.463C395.831 121.463 391.856 142.771 386.647 169.93C384.997 178.548 383.219 187.752 381.406 197.054C374.034 211.52 367.708 221.358 365.751 219.509C361.763 215.739 354.764 215.275 350.334 215.416C350.8 210.066 351.345 205.676 351.949 202.955C352.19 201.862 352.422 200.548 352.644 199.053C355.224 181.626 356.686 139.493 365.182 132.407C374.41 124.713 395.831 121.463 395.831 121.463Z" fill="#739AF0"/>
<path d="M386.65 169.933C385 178.551 383.222 187.755 381.409 197.057C374.037 211.523 367.711 221.361 365.754 219.512C361.766 215.742 354.766 215.278 350.337 215.419C350.803 210.069 351.348 205.679 351.952 202.958C352.193 201.865 352.425 200.551 352.647 199.056L374.751 145.635L386.65 169.933Z" fill="#4A75CB"/>
<path d="M426.428 120.921C426.591 113.465 426.469 104.561 425.461 97.0398L395.731 101.904C395.731 101.904 395.731 110.986 395.863 121.065C395.844 121.068 395.835 121.068 395.835 121.068C395.835 121.068 395.024 130.416 406.525 131.786C418.026 133.152 426.738 128.135 426.428 120.921Z" fill="#D9935C"/>
<path d="M395.646 103.737C395.646 103.737 402.649 118.103 410.679 118.103C418.708 118.103 426.224 104.593 426.224 104.593L395.646 103.737Z" fill="#CB7D45"/>
<path d="M415.462 515.474C415.462 515.474 416.545 507.037 419.049 502.02C421.554 497.002 437.497 500.196 437.497 500.196C437.497 500.196 440.687 502.932 441.369 515.699L415.462 515.474Z" fill="#233862"/>
<path d="M361.146 515.358C364.893 513.07 362.762 495.993 362.762 495.993C362.762 495.993 345.306 482.012 342.905 492.715C340.504 503.417 326.324 508.225 318.25 509.535C312.678 510.441 310.953 513.531 310.418 515.358H361.146Z" fill="#233862"/>
<path d="M429.258 88.456C429.258 88.456 449.105 57.1289 410.995 55.0574C410.995 55.0574 396.702 56.7434 393.465 53.5029C393.465 53.5029 382.377 70.373 392.732 88.456C403.088 106.539 429.258 88.456 429.258 88.456Z" fill="#233862"/>
<path d="M396.614 104.803C399.503 107.078 407.971 109.338 410.422 109.601C410.422 109.601 422.981 106.796 425.266 105.417C428.801 103.27 428.575 98.9266 428.757 92.8905C428.973 85.742 429.693 80.1291 428.898 76.011C427.949 71.0813 424.828 68.2796 416.088 67.5149C400.045 66.1203 393.361 70.1443 393.079 75.5284C393.007 76.9732 392.939 78.3521 392.892 79.659C392.25 96.4539 393.574 102.408 396.614 104.803Z" fill="#D9935C"/>
<path d="M397.303 388.461C396.592 392.381 396.141 395.597 396.022 397.9C394.401 429.588 369.379 502.042 364.903 503.731C357.979 506.348 347.072 500.785 341.369 498.967C339.005 498.212 337.409 495.824 337.934 493.401C350.325 436.373 354.879 354.253 356.535 305.636C357.371 281.148 361.572 264.231 361.572 264.231C361.572 264.231 422.6 247.931 422.96 268.549C423.279 286.798 402.743 358.359 397.303 388.461Z" fill="#2B478B"/>
<path d="M397.303 388.461L356.535 305.636C357.371 281.148 361.572 264.231 361.572 264.231C361.572 264.231 422.599 247.931 422.959 268.549C423.279 286.798 402.743 358.359 397.303 388.461Z" fill="#233862"/>
<path d="M383.723 268.621L415.985 502.703C415.985 502.703 430.153 506.122 441.172 503.386C441.172 503.386 450.616 378.889 449.831 348.794C449.045 318.695 456.608 268.258 448.103 262.695C439.597 257.135 383.723 268.621 383.723 268.621Z" fill="#2B478B"/>
<path d="M452.739 262.695C452.845 265.406 450.701 267.668 447.993 267.709L397.155 268.486L359.816 269.057C358.066 269.088 363.594 255.082 363.707 163.762C363.735 143.385 395.246 121.457 395.828 121.457L395.834 121.463C395.834 124.396 400.452 129.815 407.57 130.279C416.016 130.833 426.378 126.624 426.378 121.754C426.378 121.701 427.357 122.763 428.935 125.061C433.152 131.209 441.645 146.205 447.067 172.308C451.346 192.92 449.699 220.48 452.783 256.041C453.005 258.614 452.673 260.896 452.739 262.695Z" fill="#FFA412"/>
<path d="M450.864 267.991C450.864 267.991 444.105 271.022 431.465 273.645C422.067 275.597 409.42 277.327 393.881 277.424C369.17 277.581 359.813 269.053 359.813 269.053C358.063 269.085 363.591 255.079 363.704 163.759C363.732 143.382 395.243 121.453 395.825 121.453L395.831 121.46C395.831 121.46 395.02 148.597 403.222 156.576C403.222 156.576 414.72 147.685 429.64 122.375C433.856 128.524 441.642 146.205 447.064 172.308C448.162 177.62 448.873 183.39 449.374 189.639C450.811 207.65 450.491 229.641 452.78 256.041C453.005 258.611 452.673 260.893 452.739 262.692C452.846 265.406 453.572 267.95 450.864 267.991Z" fill="#739AF0"/>
<path d="M450.864 267.991C450.864 267.991 444.105 271.022 431.465 273.645C427.489 267.574 422.477 256.615 421.782 239.347C420.608 210.144 448.316 172.54 448.316 172.54L449.374 189.642C450.811 207.653 450.491 229.644 452.78 256.044C453.005 258.614 452.673 260.896 452.739 262.695C452.845 265.406 453.572 267.95 450.864 267.991Z" fill="#4A75CB"/>
<path d="M426.854 169.109L379.624 196.409L417.029 261.268L464.259 233.968L426.854 169.109Z" fill="#2B478B"/>
<path d="M456.289 131.269C450.504 126.891 436.918 123.785 430.232 122.466C427.874 122.002 426.375 121.757 426.375 121.757C427.073 124.976 428.641 130.025 430.689 136.086C439.278 161.487 456.302 204.682 452.871 205.6C450.078 206.349 446.51 207.01 442.581 207.584C427.649 209.771 407.558 210.74 405.454 210.837C405.288 210.683 398.132 204.005 395.346 204.005C392.526 204.005 384.402 206.97 383.573 209.248C382.743 211.53 382.411 215.632 384.734 216.544C387.057 217.456 396.674 219.737 399.162 219.963C399.503 219.994 399.914 219.994 400.358 219.954C418.223 225.213 433.603 227.792 445.455 229.014C461.99 230.713 471.663 229.769 471.663 229.769C483.64 203.964 464.112 137.189 456.289 131.269Z" fill="#D9935C"/>
<path d="M471.662 229.773C471.662 229.773 461.989 230.716 445.455 229.017C446.365 224.52 447.214 215.736 442.581 207.587C446.51 207.014 450.081 206.352 452.871 205.603C456.301 204.682 439.278 161.49 430.688 136.089C430.003 127.878 429.64 122.381 429.64 122.381L430.231 122.469C436.918 123.788 450.504 126.894 456.289 131.272C464.112 137.189 483.639 203.964 471.662 229.773Z" fill="#739AF0"/>
<path d="M403.223 156.579C403.223 156.579 426.225 146.431 426.566 145.635C426.907 144.836 425.427 138.681 423.833 136.857C423.833 136.857 434.881 137.882 435.563 136.515C436.245 135.146 436.759 123.892 436.759 123.892C436.759 123.892 432.16 119.128 426.466 118.67C426.466 118.67 421.467 131.106 419.62 134.807C414.724 144.61 403.223 156.579 403.223 156.579Z" fill="#4A75CB"/>
<path d="M397.754 136.515C397.754 136.515 399.234 148.371 403.219 156.579C403.219 156.579 391.205 148.199 390.181 145.463C389.158 142.727 393.086 137.424 393.086 137.424C393.086 137.424 385.911 137.252 385.742 134.861C385.57 132.466 387.962 123.061 387.962 123.061C387.962 123.061 394.132 118.551 395.841 118.721L397.754 136.515Z" fill="#4A75CB"/>
<path d="M436.696 71.003L385.61 71.5514C385.61 71.5514 384.862 56.1292 393.715 46.298C394.119 45.8435 394.548 45.4016 394.999 44.9754C396.908 43.1577 399.209 41.5907 401.976 40.4343C412.188 36.169 420.655 40.1052 425.949 44.1355C426.472 44.5304 426.96 44.9284 427.417 45.3202C430.294 47.7678 431.9 49.9521 431.9 49.9521C431.9 49.9521 436.861 56.7246 436.696 71.003Z" fill="#FFA412"/>
<path d="M422.346 71.1565C422.205 69.0787 421.303 51.3937 427.508 45.3985C427.051 45.0036 427.182 45.0851 426.663 44.6902C420.045 51.5849 419.519 68.9909 419.547 71.1847L403.216 71.3602C402.731 58.8337 395.825 46.3637 394.999 44.9691C394.545 45.3985 394.46 45.4831 394.056 45.9375C395.255 48.0467 399.763 60.1249 400.195 71.3915L385.61 71.5482C385.61 71.5482 399.218 75.0708 409.464 74.9423C419.713 74.8138 436.696 71.0029 436.696 71.0029L422.346 71.1565Z" fill="#E27F2B"/>
</g>
</svg>
